<svg xmlns="http://www.w3.org/2000/svg" width="960" height="640" viewBox="0 0 960 640" role="img" aria-labelledby="title desc">
  <title id="title">Clothing manufacturer factory production line</title>
  <desc id="desc">A clean B2B apparel factory illustration with sewing stations, garments, fabric rolls and quality production workflow.</desc>
  <defs>
    <linearGradient id="bg" x1="0" y1="0" x2="1" y2="1">
      <stop offset="0" stop-color="#f8faf7"/>
      <stop offset="1" stop-color="#e7f0ec"/>
    </linearGradient>
    <linearGradient id="gold" x1="0" y1="0" x2="1" y2="1">
      <stop offset="0" stop-color="#d9b45a"/>
      <stop offset="1" stop-color="#b9831f"/>
    </linearGradient>
  </defs>
  <rect width="960" height="640" rx="44" fill="url(#bg)"/>
  <circle cx="820" cy="118" r="92" fill="#0b3d2e" opacity=".08"/>
  <circle cx="110" cy="530" r="130" fill="#c79a2b" opacity=".09"/>
  <rect x="88" y="136" width="784" height="382" rx="26" fill="#fff" stroke="#d8e2df"/>
  <path d="M128 214h704" stroke="#d8e2df" stroke-width="8" stroke-linecap="round"/>
  <rect x="152" y="258" width="188" height="146" rx="18" fill="#f3f6f4" stroke="#d8e2df"/>
  <rect x="386" y="258" width="188" height="146" rx="18" fill="#f3f6f4" stroke="#d8e2df"/>
  <rect x="620" y="258" width="188" height="146" rx="18" fill="#f3f6f4" stroke="#d8e2df"/>
  <path d="M188 342h116M422 342h116M656 342h116" stroke="#0b3d2e" stroke-width="10" stroke-linecap="round"/>
  <path d="M210 308h74M444 308h74M678 308h74" stroke="#c79a2b" stroke-width="10" stroke-linecap="round"/>
  <g fill="#0b3d2e">
    <path d="M218 447h58v34h-58z"/>
    <path d="M452 447h58v34h-58z"/>
    <path d="M686 447h58v34h-58z"/>
  </g>
  <g fill="none" stroke="#0b3d2e" stroke-width="10" stroke-linecap="round" stroke-linejoin="round">
    <path d="M238 287c14-18 29-18 44 0l18 24h-80z"/>
    <path d="M472 287c14-18 29-18 44 0l18 24h-80z"/>
    <path d="M706 287c14-18 29-18 44 0l18 24h-80z"/>
  </g>
  <rect x="146" y="168" width="128" height="28" rx="14" fill="url(#gold)"/>
  <rect x="302" y="168" width="96" height="28" rx="14" fill="#0b3d2e" opacity=".86"/>
  <rect x="696" y="168" width="110" height="28" rx="14" fill="#0b3d2e" opacity=".86"/>
  <path d="M166 548h628" stroke="#0b3d2e" stroke-width="14" stroke-linecap="round" opacity=".13"/>
</svg>
